<?xml version="1.0" encoding="UTF-8"?>
<svg id="Layer_2" data-name="Layer 2" xmlns="http://www.w3.org/2000/svg" viewBox="0 0 61.98 61.98">
  <defs>
    <style>
      .cls-1 {
        fill: none;
        stroke: #d5a945;
        stroke-miterlimit: 10;
        stroke-width: .99px;
      }

      .cls-2 {
        fill: #fff;
      }

      .cls-3 {
        fill: #a5a5a5;
        opacity: .58;
      }
    </style>
  </defs>
  <g id="OBJECTS">
    <g>
      <rect class="cls-3" width="61.98" height="61.98"/>
      <g>
        <g>
          <polyline class="cls-1" points="3.42 26.47 3.42 2.61 26.02 2.61"/>
          <polyline class="cls-1" points="59.45 35.4 59.39 59.26 36.8 59.2"/>
        </g>
        <g>
          <path class="cls-2" d="M30.3,44.84c-.84,0-1.96.28-2.52,1.12-.56.56-1.12,1.68-1.12,2.52s.28,1.96,1.12,2.52c.56.56,1.68,1.12,2.52,1.12s1.96-.28,2.52-1.12c.56-.56,1.12-1.68,1.12-2.52s-.28-1.96-1.12-2.52c-.56-.84-1.68-1.12-2.52-1.12Z"/>
          <path class="cls-2" d="M30.3,9.87c-1.96,0-3.64,1.68-3.64,3.64v24.62c0,1.96,1.68,3.64,3.64,3.64s3.64-1.68,3.64-3.64V13.51c0-1.96-1.68-3.64-3.64-3.64Z"/>
        </g>
      </g>
    </g>
  </g>
</svg>